<?xml version="1.0" encoding="utf-8"?>
<!-- Generator: Adobe Illustrator 22.1.0, SVG Export Plug-In . SVG Version: 6.00 Build 0)  -->
<svg version="1.1" xmlns="http://www.w3.org/2000/svg" xmlns:xlink="http://www.w3.org/1999/xlink" x="0px" y="0px"
	 viewBox="0 0 1197.4 277.5" style="enable-background:new 0 0 1197.4 277.5;" xml:space="preserve">
<style type="text/css">
	.st0{fill:#F04D5C;}
	.st1{fill:#919396;}
	.st2{fill:#AFB1B4;}
	.st3{fill:#F04D5C;fill-opacity:0.4441;}
	.st4{fill:#F04D5C;fill-opacity:0.4637;}
	.st5{fill:#F04D5C;fill-opacity:2.654900e-02;}
	.st6{fill:#F04D5C;fill-opacity:4.543000e-02;}
	.st7{fill:#F04D5C;fill-opacity:0.2544;}
	.st8{fill:#F04D5C;fill-opacity:1.576400e-02;}
	.st9{fill:#F04D5C;fill-opacity:0.3914;}
	.st10{fill:#F04D5C;fill-opacity:0.2609;}
	.st11{fill:#F04D5C;fill-opacity:0.2476;}
	.st12{fill:#F04D5C;fill-opacity:0.1753;}
	.st13{fill:#F04D5C;fill-opacity:0.2962;}
	.st14{fill:#F04D5C;fill-opacity:0.1933;}
	.st15{fill:#F04D5C;fill-opacity:0.4427;}
	.st16{fill:#F04D5C;fill-opacity:0.3347;}
	.st17{fill:#F04D5C;fill-opacity:0.1539;}
	.st18{fill:#F04D5C;fill-opacity:0.4131;}
	.st19{fill:#F04D5C;fill-opacity:0.1251;}
	.st20{fill:#F04D5C;fill-opacity:0.2364;}
	.st21{fill:#F04D5C;fill-opacity:0.1029;}
	.st22{fill:#F04D5C;fill-opacity:0.2698;}
	.st23{fill:#F04D5C;fill-opacity:0.2815;}
	.st24{fill:#F04D5C;fill-opacity:0.2543;}
	.st25{fill:#F04D5C;fill-opacity:0.5;}
	.st26{fill:#F04D5C;fill-opacity:0.191;}
	.st27{fill:#F04D5C;fill-opacity:0.4418;}
	.st28{fill:#F04D5C;fill-opacity:9.631200e-02;}
	.st29{fill:#F04D5C;fill-opacity:0.1845;}
	.st30{fill:#F04D5C;fill-opacity:0.1359;}
	.st31{opacity:0.98;fill:none;stroke:#919396;stroke-miterlimit:10;}
	.st32{fill:#BEC1C5;}
</style>
<g id="Layer_1">
</g>
<g id="Layer_2">
	<g>
		<g>
			<g>
				<path class="st0" d="M316.8,91.5c2.7,0,5.2,0.5,7.6,1.5c2.4,1,4.5,2.4,6.2,4.2c1.8,1.8,3.1,3.9,4.2,6.2c1,2.4,1.5,4.9,1.5,7.7
					c0,6.2-2.3,11.1-6.8,14.7c2.4,1.8,4.4,4.1,5.9,6.9c1.5,2.8,2.3,5.8,2.3,9.1c0,2.7-0.5,5.2-1.5,7.6c-1,2.4-2.4,4.5-4.2,6.2
					c-1.8,1.8-3.8,3.1-6.2,4.2c-2.4,1-4.9,1.5-7.6,1.5H293V91.5H316.8z M316.8,122.2c1.5,0,3-0.3,4.3-0.9c1.3-0.6,2.5-1.4,3.5-2.4
					c1-1,1.8-2.2,2.4-3.5c0.6-1.3,0.9-2.8,0.9-4.3c0-1.5-0.3-3-0.9-4.4c-0.6-1.4-1.4-2.6-2.4-3.6c-1-1-2.2-1.8-3.5-2.4
					c-1.3-0.6-2.8-0.9-4.3-0.9h-15.5v22.3H316.8z M318.3,130.5c-0.1,0-0.2,0-0.3,0c-0.1,0-0.2,0-0.3,0h-16.3V153h16.9
					c1.5,0,3-0.3,4.4-0.9c1.4-0.6,2.6-1.4,3.5-2.4c1-1,1.8-2.2,2.4-3.6c0.6-1.4,0.9-2.8,0.9-4.4c0-1.5-0.3-3-0.9-4.4
					c-0.6-1.4-1.4-2.6-2.4-3.6c-1-1-2.2-1.8-3.5-2.4C321.2,130.8,319.8,130.5,318.3,130.5z"/>
				<path class="st0" d="M369.2,112.3c3.4,0,6.7,0.7,9.8,2c3.1,1.3,5.7,3.1,8,5.4c2.3,2.3,4.1,4.9,5.4,7.9c1.3,3,2,6.3,2,9.7v23.9
					h-8.3v-5.4c-2.2,2-4.8,3.5-7.6,4.6c-2.8,1.1-5.9,1.7-9.1,1.7c-3.4,0-6.7-0.7-9.7-2c-3-1.3-5.6-3.1-7.9-5.3
					c-2.3-2.2-4.1-4.9-5.4-7.9c-1.3-3-2-6.3-2-9.7c0-3.4,0.7-6.7,2-9.7c1.3-3,3.1-5.7,5.4-7.9c2.3-2.3,4.9-4.1,7.9-5.4
					C362.5,113,365.7,112.3,369.2,112.3z M369.2,120.6c-2.3,0-4.5,0.4-6.5,1.3c-2,0.9-3.8,2.1-5.3,3.6c-1.5,1.5-2.7,3.3-3.6,5.4
					c-0.9,2-1.3,4.2-1.3,6.5c0,2.3,0.4,4.5,1.3,6.5c0.9,2,2.1,3.8,3.6,5.3c1.5,1.5,3.3,2.7,5.3,3.6c2,0.9,4.2,1.3,6.5,1.3
					c2.4,0,4.6-0.4,6.6-1.3s3.8-2.1,5.3-3.6c1.5-1.5,2.7-3.3,3.5-5.3c0.9-2,1.3-4.2,1.3-6.5c0-2.3-0.4-4.5-1.3-6.5
					c-0.9-2-2-3.8-3.5-5.4c-1.5-1.5-3.3-2.7-5.3-3.6C373.7,121,371.5,120.6,369.2,120.6z"/>
				<path class="st0" d="M428.6,112.4c3.4,0,6.7,0.7,9.7,2c3,1.3,5.7,3.1,7.9,5.3c2.3,2.2,4.1,4.9,5.4,7.9c1.3,3.1,2,6.3,2,9.8v23.9
					h-8.2v-23.9c0-2.3-0.4-4.5-1.3-6.5c-0.9-2-2-3.8-3.5-5.4c-1.5-1.5-3.3-2.7-5.3-3.6c-2-0.9-4.2-1.3-6.6-1.3
					c-2.3,0-4.5,0.4-6.5,1.3c-2,0.9-3.8,2.1-5.3,3.6c-1.5,1.5-2.7,3.3-3.6,5.4c-0.9,2-1.3,4.2-1.3,6.5v23.9h-8.1v-23.9
					c0-3.4,0.7-6.7,2-9.8c1.3-3.1,3.1-5.7,5.4-7.9c2.3-2.2,4.9-4,7.9-5.3C421.9,113.1,425.2,112.4,428.6,112.4z"/>
				<path class="st0" d="M462.1,91.3h8.1v41.9l19.7-19.7h11.5l-23.9,23.9l23.9,23.9h-11.5l-19.7-19.7v19.7h-8.1V91.3z"/>
				<path class="st1" d="M547.8,91.3v5.1h-21.7c-1.9,0-3.7,0.4-5.4,1.1c-1.7,0.7-3.1,1.7-4.4,3c-1.2,1.2-2.2,2.7-2.9,4.4
					c-0.7,1.7-1.1,3.4-1.1,5.4c0,1.9,0.3,3.7,1.1,5.4c0.7,1.7,1.7,3.1,2.9,4.4c1.2,1.2,2.7,2.2,4.4,2.9c1.7,0.7,3.4,1.1,5.4,1.1h6.3
					c2.6,0,5,0.5,7.3,1.5s4.3,2.3,6,4c1.7,1.7,3,3.7,4,6c1,2.3,1.5,4.7,1.5,7.3c0,2.6-0.5,5.1-1.5,7.3c-1,2.3-2.3,4.2-4,5.9
					s-3.7,3-6,4c-2.3,1-4.7,1.5-7.3,1.5h-21.7v-5h21.7c1.9,0,3.7-0.4,5.4-1.1c1.7-0.7,3.1-1.7,4.4-2.9c1.2-1.2,2.2-2.7,3-4.4
					c0.7-1.7,1.1-3.5,1.1-5.4c0-1.9-0.4-3.7-1.1-5.4c-0.7-1.7-1.7-3.1-3-4.4c-1.2-1.2-2.7-2.2-4.4-2.9c-1.7-0.7-3.4-1.1-5.4-1.1
					h-6.3c-2.6,0-5.1-0.5-7.3-1.5c-2.3-1-4.2-2.3-5.9-4c-1.7-1.7-3-3.7-4-5.9c-1-2.3-1.5-4.7-1.5-7.3c0-2.6,0.5-5.1,1.5-7.4
					c1-2.3,2.3-4.3,4-6c1.7-1.7,3.7-3,5.9-4c2.3-1,4.7-1.5,7.3-1.5H547.8z"/>
				<path class="st1" d="M582,162.1c-3.4,0-6.7-0.7-9.7-2c-3-1.3-5.7-3.1-7.9-5.4c-2.3-2.3-4.1-4.9-5.4-7.9c-1.3-3-2-6.3-2-9.7
					c0-3.4,0.7-6.7,2-9.8c1.3-3.1,3.1-5.7,5.4-8c2.3-2.3,4.9-4.1,7.9-5.4c3-1.3,6.3-2,9.7-2c2.6,0,5.1,0.5,7.3,1.5
					c2.3,1,4.3,2.3,6,4.1l-3.5,3.5c-1.3-1.3-2.7-2.3-4.4-3c-1.7-0.7-3.4-1.1-5.4-1.1c-2.7,0-5.3,0.5-7.8,1.6
					c-2.4,1.1-4.5,2.5-6.4,4.3c-1.8,1.8-3.3,3.9-4.3,6.4c-1.1,2.5-1.6,5.1-1.6,7.8c0,2.7,0.5,5.3,1.6,7.8c1.1,2.4,2.5,4.5,4.3,6.4
					c1.8,1.8,3.9,3.3,6.4,4.3c2.4,1.1,5,1.6,7.8,1.6c1.9,0,3.7-0.3,5.4-1.1c1.7-0.7,3.1-1.7,4.4-3l3.5,3.5c-1.7,1.7-3.7,3-6,4
					C587.1,161.6,584.6,162.1,582,162.1z"/>
				<path class="st1" d="M624.5,112.3c3.4,0,6.7,0.7,9.7,2c3,1.3,5.7,3.1,7.9,5.4c2.3,2.3,4.1,4.9,5.4,8c1.3,3.1,2,6.3,2,9.8
					c0,3.4-0.7,6.7-2,9.7c-1.3,3-3.1,5.7-5.4,7.9c-2.3,2.3-4.9,4.1-7.9,5.4c-3,1.3-6.3,2-9.7,2c-3.4,0-6.7-0.7-9.7-2
					c-3-1.3-5.7-3.1-7.9-5.4c-2.3-2.3-4.1-4.9-5.4-7.9c-1.3-3-2-6.3-2-9.7c0-3.4,0.7-6.7,2-9.8c1.3-3.1,3.1-5.7,5.4-8
					c2.3-2.3,4.9-4.1,7.9-5.4C617.8,113,621.1,112.3,624.5,112.3z M624.5,117.4c-2.8,0-5.4,0.5-7.8,1.6c-2.4,1.1-4.5,2.5-6.3,4.3
					c-1.8,1.8-3.2,3.9-4.3,6.4c-1.1,2.5-1.6,5.1-1.6,7.8s0.5,5.3,1.6,7.8c1.1,2.4,2.5,4.5,4.3,6.4c1.8,1.8,3.9,3.3,6.3,4.3
					c2.4,1.1,5,1.6,7.8,1.6c2.7,0,5.3-0.5,7.8-1.6c2.4-1.1,4.5-2.5,6.4-4.3c1.8-1.8,3.3-3.9,4.3-6.4c1.1-2.4,1.6-5,1.6-7.8
					s-0.5-5.3-1.6-7.8c-1.1-2.5-2.5-4.6-4.3-6.4c-1.8-1.8-3.9-3.2-6.4-4.3C629.8,117.9,627.3,117.4,624.5,117.4z"/>
				<path class="st1" d="M662,161.3h-5v-23.9c0-3.4,0.7-6.7,2-9.8c1.3-3.1,3.1-5.7,5.4-8c2.3-2.3,4.9-4.1,7.9-5.4c3-1.3,6.3-2,9.7-2
					v5.1c-2.7,0-5.3,0.5-7.8,1.6c-2.4,1.1-4.5,2.5-6.4,4.3c-1.8,1.8-3.3,3.9-4.3,6.4c-1.1,2.5-1.6,5.1-1.6,7.8V161.3z"/>
				<path class="st1" d="M710,162.6c-3.4,0-6.7-0.7-9.8-2c-3.1-1.3-5.7-3.1-8-5.4c-2.3-2.3-4.1-4.9-5.4-7.9c-1.3-3-2-6.3-2-9.7
					c0-3.4,0.7-6.7,2-9.8c1.3-3.1,3.1-5.7,5.4-8s4.9-4.1,8-5.4c3.1-1.3,6.3-2,9.8-2s6.7,0.7,9.7,2s5.7,3.1,7.9,5.4
					c2.3,2.3,4.1,4.9,5.4,8c1.3,3.1,2,6.3,2,9.8c0,0.4,0,0.9,0,1.2c0,0.4,0,0.8-0.1,1.2h-1.2h-43.6c0.3,2.5,1.1,4.8,2.2,6.9
					c1.2,2.1,2.6,4,4.4,5.6c1.8,1.6,3.8,2.8,6.1,3.7c2.3,0.9,4.7,1.3,7.3,1.3c1.9,0,3.6-0.3,5.3-1.1s3.1-1.7,4.4-3l3.5,3.5
					c-1.7,1.7-3.6,3-5.9,4C715,162.1,712.6,162.6,710,162.6z M729.8,135.1c-0.3-2.5-1.1-4.8-2.2-6.9s-2.6-4-4.4-5.6
					c-1.8-1.6-3.8-2.8-6-3.7c-2.3-0.9-4.7-1.3-7.2-1.3c-2.6,0-5,0.4-7.3,1.3s-4.3,2.1-6.1,3.7c-1.8,1.6-3.2,3.4-4.4,5.6
					c-1.1,2.1-1.9,4.4-2.2,6.9H729.8z"/>
			</g>
			<g>
				<path class="st2" d="M295.9,175.2v20.6h-1.7v-20.6H295.9z"/>
				<path class="st2" d="M323.9,175.5V196l-13.9-16.7v16.5h-1.7v-20.9l13.9,16.7v-16H323.9z"/>
				<path class="st2" d="M348,176.9h-9.9v5.9h7.8v1.7h-7.8v11.2h-1.6v-20.6H348V176.9z"/>
				<path class="st2" d="M367.8,175c1.5,0,2.8,0.3,4.1,0.8c1.3,0.5,2.4,1.3,3.3,2.2c0.9,1,1.7,2.1,2.2,3.3c0.5,1.3,0.8,2.6,0.8,4.1
					c0,1.5-0.3,2.8-0.8,4.1c-0.5,1.3-1.3,2.4-2.2,3.3c-0.9,1-2,1.7-3.3,2.2c-1.3,0.5-2.6,0.8-4.1,0.8c-1.5,0-2.8-0.3-4.1-0.8
					c-1.3-0.5-2.4-1.3-3.3-2.2c-1-1-1.7-2.1-2.3-3.3c-0.5-1.3-0.8-2.6-0.8-4.1c0-1.5,0.3-2.8,0.8-4.1c0.5-1.3,1.3-2.4,2.3-3.3
					c1-1,2.1-1.7,3.3-2.2C364.9,175.3,366.3,175,367.8,175z M376.5,185.5c0-1.2-0.2-2.4-0.7-3.4c-0.5-1.1-1.1-2-1.9-2.8
					c-0.8-0.8-1.7-1.4-2.8-1.9c-1.1-0.5-2.2-0.7-3.4-0.7c-1.2,0-2.4,0.2-3.4,0.7c-1.1,0.5-2,1.1-2.8,1.9c-0.8,0.8-1.4,1.7-1.9,2.8
					c-0.5,1.1-0.7,2.2-0.7,3.4c0,1.2,0.2,2.4,0.7,3.4c0.5,1.1,1.1,2,1.9,2.8c0.8,0.8,1.7,1.4,2.8,1.9c1.1,0.5,2.2,0.7,3.4,0.7
					c1.2,0,2.3-0.2,3.4-0.7c1.1-0.5,2-1.1,2.8-1.9c0.8-0.8,1.4-1.7,1.9-2.8S376.5,186.8,376.5,185.5z"/>
				<path class="st2" d="M391.3,187.9v7.9h-1.6v-20.6h5.8c0.9,0,1.8,0.2,2.5,0.5c0.8,0.4,1.4,0.8,2,1.4c0.6,0.6,1,1.3,1.3,2
					c0.3,0.8,0.5,1.6,0.5,2.4c0,1.3-0.3,2.4-1,3.5c-0.7,1.1-1.6,1.8-2.8,2.3l2.1,2.7c0.3,0.4,0.7,0.8,1,1.4c0.4,0.5,0.8,1,1.2,1.5
					c0.4,0.5,0.8,1,1.2,1.5c0.4,0.5,0.7,0.9,1,1.3h-2.1l-6.1-7.9H391.3z M391.3,176.9v9.2h4.2c0.7,0,1.3-0.1,1.8-0.4
					c0.6-0.2,1.1-0.6,1.5-1c0.4-0.4,0.7-0.9,1-1.5c0.2-0.6,0.4-1.1,0.4-1.8c0-0.6-0.1-1.3-0.4-1.8c-0.2-0.6-0.6-1.1-1-1.5
					c-0.4-0.4-0.9-0.7-1.5-1c-0.6-0.2-1.2-0.4-1.8-0.4H391.3z"/>
				<path class="st2" d="M432.4,174.9v20.8h-1.7v-16.2l-2.9,3.6l-4.3,5.4l-7.3-9.1v16.2h-1.6v-20.9l8.9,11.1L432.4,174.9z"/>
				<path class="st2" d="M452.1,175c1.4,3.4,2.9,6.7,4.3,10.1c1.4,3.3,2.8,6.8,4.3,10.3l-1.5,0.4l-3.4-7.7h-7.2l-3.4,7.8l-1.6-0.4
					L452.1,175z M455.1,186.7l-3-7.7c-0.2,0.5-0.4,1-0.6,1.5c-0.2,0.5-0.4,1.1-0.6,1.7c-0.2,0.6-0.5,1.3-0.8,2
					c-0.3,0.7-0.6,1.6-0.9,2.6H455.1z"/>
				<path class="st2" d="M484.2,175.2v1.7h-8v18.8h-1.7v-18.8h-8v-1.7H484.2z"/>
				<path class="st2" d="M496.2,175.2v20.6h-1.7v-20.6H496.2z"/>
				<path class="st2" d="M519,175c1.5,0,2.8,0.3,4.1,0.8c1.3,0.5,2.4,1.3,3.3,2.2c0.9,1,1.7,2.1,2.2,3.3c0.5,1.3,0.8,2.6,0.8,4.1
					c0,1.5-0.3,2.8-0.8,4.1c-0.5,1.3-1.3,2.4-2.2,3.3c-0.9,1-2,1.7-3.3,2.2c-1.3,0.5-2.6,0.8-4.1,0.8c-1.5,0-2.8-0.3-4.1-0.8
					c-1.3-0.5-2.4-1.3-3.3-2.2c-1-1-1.7-2.1-2.3-3.3c-0.5-1.3-0.8-2.6-0.8-4.1c0-1.5,0.3-2.8,0.8-4.1c0.5-1.3,1.3-2.4,2.3-3.3
					c1-1,2.1-1.7,3.3-2.2C516.2,175.3,517.5,175,519,175z M527.8,185.5c0-1.2-0.2-2.4-0.7-3.4c-0.5-1.1-1.1-2-1.9-2.8
					c-0.8-0.8-1.7-1.4-2.8-1.9c-1.1-0.5-2.2-0.7-3.4-0.7c-1.2,0-2.4,0.2-3.4,0.7c-1.1,0.5-2,1.1-2.8,1.9c-0.8,0.8-1.4,1.7-1.9,2.8
					c-0.5,1.1-0.7,2.2-0.7,3.4c0,1.2,0.2,2.4,0.7,3.4s1.1,2,1.9,2.8c0.8,0.8,1.7,1.4,2.8,1.9c1.1,0.5,2.2,0.7,3.4,0.7
					c1.2,0,2.3-0.2,3.4-0.7c1.1-0.5,2-1.1,2.8-1.9c0.8-0.8,1.4-1.7,1.9-2.8C527.6,187.9,527.8,186.8,527.8,185.5z"/>
				<path class="st2" d="M556.7,175.5V196l-13.9-16.7v16.5h-1.7v-20.9l13.9,16.7v-16H556.7z"/>
				<path class="st2" d="M597.6,175.2c0.8,0,1.5,0.2,2.1,0.5c0.7,0.3,1.2,0.7,1.7,1.2s0.8,1.1,1.1,1.7c0.3,0.6,0.4,1.3,0.4,2
					c0,0.9-0.2,1.7-0.7,2.5c-0.4,0.8-1,1.4-1.7,1.9c0.9,0.5,1.6,1.2,2.1,2.1c0.5,0.9,0.8,1.9,0.8,3c0,0.8-0.1,1.5-0.4,2.2
					c-0.3,0.7-0.7,1.3-1.2,1.8c-0.5,0.5-1.1,0.9-1.8,1.2c-0.7,0.3-1.4,0.5-2.2,0.5h-8.2v-20.6H597.6z M601.1,180.6
					c0-0.5-0.1-1-0.3-1.4c-0.2-0.4-0.4-0.8-0.8-1.2c-0.3-0.3-0.7-0.6-1.1-0.8c-0.4-0.2-0.9-0.3-1.4-0.3h-6.2v7.3h6.2
					c0.5,0,1-0.1,1.4-0.3c0.4-0.2,0.8-0.5,1.1-0.8c0.3-0.3,0.6-0.7,0.8-1.2C601.1,181.5,601.1,181.1,601.1,180.6z M597.8,194
					c1.1,0,2.1-0.4,2.8-1.2c0.8-0.8,1.1-1.7,1.1-2.9c0-0.5-0.1-1.1-0.3-1.6c-0.2-0.5-0.5-0.9-0.8-1.3c-0.3-0.4-0.8-0.7-1.2-0.9
					c-0.5-0.2-1-0.3-1.5-0.3h-6.5v8.1H597.8z"/>
				<path class="st2" d="M623.7,196c-1.1,0-2.2-0.2-3.2-0.6c-1-0.4-1.9-1-2.6-1.7c-0.8-0.7-1.4-1.6-1.8-2.5c-0.4-1-0.7-2-0.7-3.1
					v-12.8h1.6V188c0,0.9,0.2,1.7,0.5,2.4c0.4,0.8,0.8,1.4,1.4,2c0.6,0.6,1.3,1,2.1,1.3c0.8,0.3,1.7,0.5,2.6,0.5
					c0.9,0,1.7-0.2,2.5-0.5s1.5-0.8,2.1-1.3c0.6-0.6,1.1-1.2,1.4-2c0.3-0.8,0.5-1.6,0.5-2.4v-12.8h1.7V188c0,1.1-0.2,2.1-0.7,3.1
					c-0.4,1-1,1.8-1.8,2.5c-0.7,0.7-1.6,1.3-2.6,1.7C625.9,195.8,624.9,196,623.7,196z"/>
				<path class="st2" d="M646.5,187.9v7.9h-1.6v-20.6h5.8c0.9,0,1.8,0.2,2.5,0.5c0.8,0.4,1.4,0.8,2,1.4c0.6,0.6,1,1.3,1.3,2
					c0.3,0.8,0.5,1.6,0.5,2.4c0,1.3-0.3,2.4-1,3.5c-0.7,1.1-1.6,1.8-2.8,2.3l2.1,2.7c0.3,0.4,0.7,0.8,1,1.4s0.8,1,1.2,1.5
					c0.4,0.5,0.8,1,1.2,1.5c0.4,0.5,0.7,0.9,1,1.3h-2.1l-6.1-7.9H646.5z M646.5,176.9v9.2h4.2c0.7,0,1.3-0.1,1.8-0.4
					c0.6-0.2,1.1-0.6,1.5-1c0.4-0.4,0.7-0.9,1-1.5c0.2-0.6,0.4-1.1,0.4-1.8c0-0.6-0.1-1.3-0.4-1.8c-0.2-0.6-0.6-1.1-1-1.5
					c-0.4-0.4-0.9-0.7-1.5-1c-0.6-0.2-1.2-0.4-1.8-0.4H646.5z"/>
				<path class="st2" d="M669.7,195.8v-20.6h11.9v1.7h-10.2v5.9h6.8v1.7h-6.8v9.5h10.9v1.7H669.7z"/>
				<path class="st2" d="M699.4,175c1.4,3.4,2.9,6.7,4.3,10.1c1.4,3.3,2.8,6.8,4.3,10.3l-1.5,0.4l-3.4-7.7h-7.2l-3.4,7.8l-1.6-0.4
					L699.4,175z M702.4,186.7l-3-7.7c-0.2,0.5-0.4,1-0.6,1.5s-0.4,1.1-0.6,1.7c-0.2,0.6-0.5,1.3-0.8,2c-0.3,0.7-0.6,1.6-0.9,2.6
					H702.4z"/>
				<path class="st2" d="M726.9,196c-1.1,0-2.2-0.2-3.2-0.6c-1-0.4-1.9-1-2.6-1.7c-0.8-0.7-1.4-1.6-1.8-2.5c-0.4-1-0.7-2-0.7-3.1
					v-12.8h1.6V188c0,0.9,0.2,1.7,0.5,2.4c0.4,0.8,0.8,1.4,1.4,2c0.6,0.6,1.3,1,2.1,1.3c0.8,0.3,1.7,0.5,2.6,0.5
					c0.9,0,1.7-0.2,2.5-0.5s1.5-0.8,2.1-1.3c0.6-0.6,1.1-1.2,1.4-2c0.3-0.8,0.5-1.6,0.5-2.4v-12.8h1.7V188c0,1.1-0.2,2.1-0.7,3.1
					c-0.4,1-1,1.8-1.8,2.5c-0.7,0.7-1.6,1.3-2.6,1.7C729.1,195.8,728,196,726.9,196z"/>
			</g>
		</g>
		<polygon class="st3" points="196.7,121.5 266.8,106.8 231.8,73.7 		"/>
		<polygon class="st4" points="196.7,121.5 252,88.5 266.8,106.8 		"/>
		<polygon class="st5" points="183.7,187.1 196.7,121.5 231.8,73.7 		"/>
		<polygon class="st6" points="183.7,187.1 109.4,164.4 196.7,121.5 		"/>
		<polygon class="st7" points="109.4,164.4 183.7,187.1 139.8,147.6 		"/>
		<polygon class="st8" points="70.4,71.1 109.4,164.4 139.8,147.6 		"/>
		<polygon class="st9" points="139.8,147.6 183.7,187.1 128.7,141.2 		"/>
		<polygon class="st10" points="214,197.4 128.7,141.2 183.7,187.1 		"/>
		<polygon class="st11" points="139.8,147.6 128.7,141.2 242.1,100 		"/>
		<polygon class="st12" points="70.4,71.1 139.8,147.6 37.1,118.8 		"/>
		<polygon class="st13" points="128.7,141.2 214,197.4 172.5,221.2 		"/>
		<polygon class="st14" points="215.6,167.9 242.1,100 128.7,141.2 		"/>
		<polygon class="st15" points="207.7,252.1 215.6,167.9 172.5,221.2 		"/>
		<polygon class="st16" points="128.7,141.2 172.5,221.2 215.6,167.9 		"/>
		<polygon class="st17" points="242.1,100 215.6,167.9 154.5,106.8 		"/>
		<polygon class="st18" points="70.4,71.1 37.1,118.8 24.7,95.8 		"/>
		<polygon class="st19" points="133.1,230.4 215.6,167.9 207.7,252.1 		"/>
		<polygon class="st20" points="154.5,106.8 24.7,95.8 37.1,118.8 		"/>
		<polygon class="st21" points="154.5,106.8 215.6,167.9 106.6,215 		"/>
		<polygon class="st22" points="133.1,230.4 106.6,215 215.6,167.9 		"/>
		<polygon class="st23" points="154.5,106.8 106.6,215 192,133.9 		"/>
		<polygon class="st24" points="138,97.5 24.7,95.8 154.5,106.8 		"/>
		<polygon class="st25" points="192,133.9 138,97.5 154.5,106.8 		"/>
		<polygon class="st26" points="138,97.5 123.4,25.4 24.7,95.8 		"/>
		<polygon class="st25" points="192,133.9 139.8,132.7 138,97.5 		"/>
		<polygon class="st27" points="123.4,25.4 138,97.5 139.8,132.7 		"/>
		<polygon class="st28" points="45.5,113.6 123.4,25.4 139.8,132.7 		"/>
		<polygon class="st29" points="45.5,113.6 139.8,132.7 179.1,188.8 		"/>
		<polygon class="st30" points="40.7,177.8 45.5,113.6 179.1,188.8 		"/>
		<polygon class="st25" points="45.5,113.6 40.7,177.8 76.4,164.7 		"/>
		<line class="st31" x1="762.6" y1="25.4" x2="762.6" y2="252.1"/>
		<g>
			<path class="st32" d="M825.5,66.8c-2.2-3.4-6.7-5.7-11-5.7c-8.9,0-17.4,7.7-18.8,16.6c-0.7,4.2,0.5,8.2,3,11.1
				c2.5,2.9,6.4,5,10.6,5c4.1,0,9.6-2.2,12.8-5.5l-0.5,3.2c-3.8,2.8-8.2,4.5-12.5,4.5c-9.9,0-17.2-8.4-15.7-18.4
				c1.6-10.2,11.4-18.5,21.5-18.5c4.3,0,8.4,1.7,11.1,4.7L825.5,66.8z"/>
			<path class="st32" d="M832.6,76.3L832.6,76.3c1.3-2,3-3.3,5.3-3.3c0.8,0,1.5,0.2,2.2,0.5l-1.4,1.9c-0.5-0.3-0.9-0.4-1.4-0.4
				c-4.8,0-5.4,6-5.9,9.3l-1.8,11.3h-2.1l3.4-22.1h2.1L832.6,76.3z"/>
			<path class="st32" d="M842.3,84.6c-1,5.6,2.2,9.3,7.3,9.3c3.4,0,6.5-2.1,8.5-5l1.6,1.1c-2.6,3.8-6.4,6-10.7,6
				c-6.5,0-9.7-5.3-8.8-11.6c1-6.2,6-11.5,12.4-11.5c6.6,0,9.7,5.4,8.6,11.7H842.3z M859.4,82.6c0.1-4.1-2.6-7.7-7.1-7.7
				c-4.4,0-8.7,3.5-9.7,7.7H859.4z"/>
			<path class="st32" d="M882.3,91.5L882.3,91.5c-2.1,2.8-5.9,4.4-9.1,4.4c-6.6,0-9.9-5.2-8.9-11.7c1-6.5,5.9-11.4,12.4-11.4
				c3.3,0,6.3,1.5,7.7,4.3h0.1l3.3-21.2h2.1l-6.1,39.4h-2.1L882.3,91.5z M883.6,84.1c0.8-5.1-2-9.1-7.3-9.1c-5,0-9.2,4.6-9.9,9.4
				c-0.8,5.1,1.8,9.7,7.1,9.7C879,93.9,882.7,89.4,883.6,84.1z"/>
			<path class="st32" d="M894,95.5h-2.1l3.4-22.1h2.1L894,95.5z M899.4,66c-0.2,1.1-1.2,2-2.2,2s-1.8-0.9-1.6-2c0.2-1.1,1.2-2,2.2-2
				C898.9,64.1,899.6,65,899.4,66z"/>
			<path class="st32" d="M904.4,95.5h-2.1l3.1-20.1H903l0.3-2h2.4l1.2-7.9h2.1l-1.2,7.9h3.8l-0.3,2h-3.8L904.4,95.5z"/>
			<path class="st32" d="M947.9,65.4c-1.2-2.6-3.2-4.3-6.6-4.3c-3.8,0-7.2,3.1-7.8,6.9c-0.6,3.8,2.7,5.4,5.4,6.7l6.2,3.6
				c2.4,1.7,3.4,3.9,2.9,7.2c-0.9,6-7,10.5-12.8,10.5c-5,0-8.3-3.1-9.3-7.7l2.1-0.9c0.9,3.8,3.3,6.5,7.6,6.5c4.7,0,9.4-3.7,10.1-8.5
				c0.6-4.1-3.2-5.8-6-7.3l-5.9-3.4c-2.1-1.5-3.1-3.6-2.7-6.5c0.8-5.4,5.2-9.1,10.5-9.1c3.6,0,6.7,2,7.9,5.1L947.9,65.4z"/>
			<path class="st32" d="M971.6,78.5c-1.7-2.3-4-3.6-7.1-3.6c-5.1,0-9.7,4.4-10.5,9.5c-0.8,5,2.3,9.6,7.5,9.6c3.1,0,6.3-1.5,8.6-4
				l-0.5,2.9c-2.5,2-5.5,3.1-8.4,3.1c-6.5,0-10.4-5.1-9.4-11.6c1-6.4,6.6-11.5,13-11.5c2.8,0,5.3,0.9,7.2,2.7L971.6,78.5z"/>
			<path class="st32" d="M997.1,84.4c-1,6.5-6.8,11.5-13.3,11.5c-6.3,0-10.5-5.2-9.5-11.5c1-6.4,6.8-11.6,13.1-11.6
				C993.8,72.9,998.1,77.9,997.1,84.4z M976.4,84.5c-0.8,5,2.4,9.5,7.6,9.5c5.3,0,10.1-4.1,11-9.5c0.8-5.4-2.6-9.6-8-9.6
				C981.8,74.9,977.2,79.4,976.4,84.5z"/>
			<path class="st32" d="M1005.6,76.3L1005.6,76.3c1.3-2,3-3.3,5.3-3.3c0.8,0,1.5,0.2,2.2,0.5l-1.4,1.9c-0.5-0.3-0.9-0.4-1.4-0.4
				c-4.8,0-5.4,6-5.9,9.3l-1.8,11.3h-2.1l3.4-22.1h2.1L1005.6,76.3z"/>
			<path class="st32" d="M1015.3,84.6c-1,5.6,2.2,9.3,7.3,9.3c3.4,0,6.5-2.1,8.5-5l1.6,1.1c-2.6,3.8-6.4,6-10.7,6
				c-6.5,0-9.7-5.3-8.8-11.6c1-6.2,6-11.5,12.4-11.5c6.6,0,9.7,5.4,8.6,11.7H1015.3z M1032.4,82.6c0.1-4.1-2.6-7.7-7.1-7.7
				c-4.4,0-8.7,3.5-9.7,7.7H1032.4z"/>
			<path class="st32" d="M827.2,123L827.2,123l-17.3,31l-7.5-31h-0.1l-10.7,29.8h-2.2l13.4-37.2l8,32.8l18.2-32.8l1.8,37.2h-2.2
				L827.2,123z"/>
			<path class="st32" d="M854.1,152.8h-2.1l0.6-4h-0.1c-2,2.8-5.8,4.4-9,4.4c-6.6,0-9.9-5.2-8.9-11.7c1-6.5,5.9-11.4,12.4-11.4
				c3.3,0,6.3,1.5,7.7,4.3h0.1l0.6-3.8h2.1L854.1,152.8z M836.6,141.6c-0.8,5.1,1.8,9.7,7.1,9.7c5.6,0,9.3-4.6,10.1-9.9
				c0.8-5.1-2-9.1-7.3-9.1C841.6,132.3,837.4,136.9,836.6,141.6z"/>
			<path class="st32" d="M866.4,133.6L866.4,133.6c1.3-2,3-3.3,5.3-3.3c0.8,0,1.5,0.2,2.2,0.5l-1.4,1.9c-0.5-0.3-0.9-0.4-1.4-0.4
				c-4.8,0-5.4,6-5.9,9.3l-1.8,11.3h-2.1l3.4-22.1h2.1L866.4,133.6z"/>
			<path class="st32" d="M878.5,140.1l10.4-9.4h2.7l-10.6,9.6l10.3,12.5h-2.8l-9.1-11l-1.4,1.2l-1.5,9.8h-2.1l6.1-39.4h2.1
				L878.5,140.1z"/>
			<path class="st32" d="M896.3,142c-1,5.6,2.2,9.3,7.3,9.3c3.4,0,6.5-2.1,8.5-5l1.6,1.1c-2.6,3.8-6.4,6-10.7,6
				c-6.5,0-9.7-5.3-8.8-11.6c1-6.2,6-11.5,12.4-11.5c6.6,0,9.7,5.4,8.6,11.7H896.3z M913.4,140c0.1-4.1-2.6-7.7-7.1-7.7
				c-4.4,0-8.7,3.5-9.7,7.7H913.4z"/>
			<path class="st32" d="M921,152.8h-2.1l3.1-20.1h-2.4l0.3-2h2.4l1.2-7.9h2.1l-1.2,7.9h3.8l-0.3,2h-3.8L921,152.8z"/>
			<path class="st32" d="M931.4,152.8h-2.1l3.4-22.1h2.1L931.4,152.8z M936.9,123.4c-0.2,1.1-1.2,2-2.2,2s-1.8-0.9-1.6-2
				c0.2-1.1,1.2-2,2.2-2C936.4,121.4,937.1,122.3,936.9,123.4z"/>
			<path class="st32" d="M944.6,134.2L944.6,134.2c1.7-2.4,4.3-3.9,7.2-3.9c5.6,0,6.6,3.5,5.7,9.2l-2.1,13.3h-2.1l2.1-13.3
				c0.6-4,0.7-7.2-4.1-7.2c-5.5,0-7.2,5.2-7.9,9.7l-1.7,10.9h-2.1l3.4-22.1h2.1L944.6,134.2z"/>
			<path class="st32" d="M982.3,151.8c-0.5,3.4-1.1,6.5-3.6,9.4c-2.5,2.8-5.9,4.3-9.3,4.3c-5.7,0-9.9-3.4-9.3-9.5h2.1
				c-0.5,4.6,2.9,7.5,7.3,7.5c2.7,0,5.5-1,7.5-3.3c2.1-2.5,2.8-5.4,3.2-8.4l0.4-2.7h-0.1c-2.3,2.6-5.9,4.3-9.2,4.3
				c-6.3,0-9.7-5.4-8.8-11.6c1-6.4,6.3-11.5,12.6-11.5c3.5,0,5.9,1.5,7.5,4.3h0.1l0.6-3.8h2.1L982.3,151.8z M964.7,141.6
				c-0.8,5.1,1.8,9.7,7.1,9.7c5.6,0,9.3-4.6,10.1-9.9c0.8-5.1-2-9.1-7.3-9.1C969.6,132.3,965.5,136.9,964.7,141.6z"/>
			<path class="st32" d="M1025.3,122.7c-1.2-2.6-3.2-4.3-6.6-4.3c-3.8,0-7.2,3.1-7.8,6.9c-0.6,3.8,2.7,5.4,5.4,6.7l6.2,3.6
				c2.4,1.7,3.4,3.9,2.9,7.2c-0.9,6-7,10.5-12.8,10.5c-5,0-8.3-3.1-9.3-7.7l2.1-0.9c0.9,3.8,3.3,6.5,7.6,6.5c4.7,0,9.4-3.7,10.1-8.5
				c0.6-4.1-3.2-5.8-6-7.3l-5.9-3.4c-2.1-1.5-3.1-3.6-2.7-6.5c0.8-5.4,5.2-9.1,10.5-9.1c3.6,0,6.7,2,7.9,5.1L1025.3,122.7z"/>
			<path class="st32" d="M1031.4,142c-1,5.6,2.2,9.3,7.3,9.3c3.4,0,6.5-2.1,8.5-5l1.6,1.1c-2.6,3.8-6.4,6-10.7,6
				c-6.5,0-9.7-5.3-8.8-11.6c1-6.2,6-11.5,12.4-11.5c6.6,0,9.7,5.4,8.6,11.7H1031.4z M1048.5,140c0.1-4.1-2.6-7.7-7.1-7.7
				c-4.4,0-8.7,3.5-9.7,7.7H1048.5z"/>
			<path class="st32" d="M1058.8,133.6L1058.8,133.6c1.3-2,3-3.3,5.3-3.3c0.8,0,1.5,0.2,2.2,0.5l-1.4,1.9c-0.5-0.3-0.9-0.4-1.4-0.4
				c-4.8,0-5.4,6-5.9,9.3l-1.8,11.3h-2.1l3.4-22.1h2.1L1058.8,133.6z"/>
			<path class="st32" d="M1076,149l10.6-18.2h2.2l-13.6,23.3l-6.4-23.3h2.2L1076,149z"/>
			<path class="st32" d="M1092.1,152.8h-2.1l3.4-22.1h2.1L1092.1,152.8z M1097.5,123.4c-0.2,1.1-1.2,2-2.2,2s-1.8-0.9-1.6-2
				c0.2-1.1,1.2-2,2.2-2C1097,121.4,1097.7,122.3,1097.5,123.4z"/>
			<path class="st32" d="M1119.5,135.9c-1.7-2.3-4-3.6-7.1-3.6c-5.1,0-9.7,4.4-10.5,9.5c-0.8,5,2.3,9.6,7.5,9.6c3.1,0,6.3-1.5,8.6-4
				l-0.5,2.9c-2.5,2-5.5,3.1-8.4,3.1c-6.5,0-10.4-5.1-9.4-11.6c1-6.4,6.6-11.5,13-11.5c2.8,0,5.3,0.9,7.2,2.7L1119.5,135.9z"/>
			<path class="st32" d="M1124.4,142c-1,5.6,2.2,9.3,7.3,9.3c3.4,0,6.5-2.1,8.5-5l1.6,1.1c-2.6,3.8-6.4,6-10.7,6
				c-6.5,0-9.7-5.3-8.8-11.6c1-6.2,6-11.5,12.4-11.5c6.6,0,9.7,5.4,8.6,11.7H1124.4z M1141.5,140c0.1-4.1-2.6-7.7-7.1-7.7
				c-4.4,0-8.7,3.5-9.7,7.7H1141.5z"/>
			<path class="st32" d="M1158.7,134.8c-0.5-1.5-1.7-2.5-3.4-2.5c-1.8,0-4,1.5-4.3,3.4c-0.8,5.3,10.2,2.7,8.9,10.7
				c-0.6,4.1-4.2,6.9-8.1,6.9c-3.6,0-6.3-2.2-6.6-5.8l2.2-0.7c0.4,2.6,1.8,4.5,4.7,4.5c2.7,0,5.2-2.2,5.7-5c0.4-2.7-1.5-3.6-3.6-4.3
				c-2.8-1.1-6-2.4-5.4-6.1c0.5-3.3,3.7-5.6,6.8-5.6c2.2,0,4.4,1.5,5,3.5L1158.7,134.8z"/>
			<path class="st32" d="M810.4,210.2h-2.6l-8.9-17.1h-1.1l-2.7,17.1h-2.3l5.6-36h4.4c2.9,0,5.7,0,7.8,1.8c2.3,1.8,2.9,4.7,2.4,7.7
				c-1,6.3-5.8,9.5-11.7,9.4L810.4,210.2z M800.9,191c2.2,0,4.4-0.1,6.5-1.7c1.9-1.4,3.1-3.5,3.4-5.7c0.4-2.7-0.4-5.4-2.8-6.5
				c-1.7-0.9-4.2-0.8-6.2-0.8h-1.5L798,191H800.9z"/>
			<path class="st32" d="M818.5,210.2h-2.1l3.4-22.1h2.1L818.5,210.2z M824,180.7c-0.2,1.1-1.2,2-2.2,2s-1.8-0.9-1.6-2
				c0.2-1.1,1.2-2,2.2-2C823.5,178.8,824.2,179.7,824,180.7z"/>
			<path class="st32" d="M838.6,192.1c-0.5-1.5-1.7-2.5-3.4-2.5c-1.8,0-4,1.5-4.3,3.4c-0.8,5.3,10.2,2.7,8.9,10.7
				c-0.6,4.1-4.2,6.9-8.1,6.9c-3.6,0-6.3-2.2-6.6-5.8l2.2-0.7c0.4,2.6,1.8,4.5,4.7,4.5c2.7,0,5.2-2.2,5.7-5c0.4-2.7-1.5-3.6-3.6-4.3
				c-2.8-1.1-6-2.4-5.4-6.1c0.5-3.3,3.7-5.6,6.8-5.6c2.2,0,4.4,1.5,5,3.5L838.6,192.1z"/>
			<path class="st32" d="M848.4,197.5l10.4-9.4h2.7l-10.6,9.6l10.3,12.5h-2.8l-9.1-11l-1.4,1.2l-1.5,9.8h-2.1l6.1-39.4h2.1
				L848.4,197.5z"/>
			<path class="st32" d="M899.8,204.2c-4.5,3.4-9.5,6.7-14.2,6.7c-5.2,0-8.6-4.3-7.8-9.5c1-6.3,7.5-10,12.8-13.1
				c-1.3-2.3-3-4.8-2.5-7.9c0.6-3.8,4.3-6.9,8-6.9c3.7,0,6,3,5.4,6.7c-0.6,4.1-4.2,6.5-8,8.9l6.9,12.1l5.3-5l1.6,1l-5.8,5.7l4.3,7.3
				h-2.5L899.8,204.2z M889.3,191.6c-3.7,2.2-8.4,5-9.1,9.5c-0.6,4.1,1.7,7.6,5.8,7.6s9-3.6,12.8-6.4l-7-12.3L889.3,191.6z
				 M890.4,180.6c-0.4,2.6,1.2,4.5,2.1,6.6c2.8-2,6.3-3.5,6.8-7.2c0.4-2.4-1.2-4.5-3.6-4.5C893.2,175.6,890.8,178.1,890.4,180.6z"/>
			<path class="st32" d="M956.9,181.5c-2.2-3.4-6.7-5.7-11-5.7c-8.9,0-17.4,7.7-18.8,16.6c-0.7,4.2,0.5,8.2,3,11.1
				c2.5,2.9,6.4,5,10.6,5c4.1,0,9.6-2.2,12.8-5.5l-0.5,3.2c-3.8,2.8-8.2,4.5-12.5,4.5c-9.9,0-17.2-8.4-15.7-18.4
				c1.6-10.2,11.4-18.5,21.5-18.5c4.3,0,8.4,1.7,11.1,4.7L956.9,181.5z"/>
			<path class="st32" d="M981.2,199.1c-1,6.5-6.8,11.5-13.3,11.5c-6.3,0-10.5-5.2-9.5-11.5c1-6.4,6.8-11.6,13.1-11.6
				C978,187.6,982.3,192.6,981.2,199.1z M960.6,199.2c-0.8,5,2.4,9.5,7.6,9.5c5.3,0,10.1-4.1,11-9.5c0.8-5.4-2.6-9.6-8-9.6
				C965.9,189.6,961.4,194.1,960.6,199.2z"/>
			<path class="st32" d="M989.8,190.9L989.8,190.9c1.4-2.1,3.8-3.3,6.1-3.3c2.8,0,4.8,1.4,5.5,4c1.6-2.6,4.2-4,7-4
				c5.6,0,6.1,3.9,5.4,8.7l-2.2,13.9h-2.1l2.2-14.1c0.5-3.4,0.5-6.4-3.7-6.4c-4.5,0-6.2,4-6.8,7.8l-2,12.7h-2.1l2.1-13.6
				c0.5-3.4,0.5-6.9-3.8-6.9c-4.6,0-6.2,4.8-6.7,8.4l-1.9,12.1h-2.1l3.4-22.1h2.1L989.8,190.9z"/>
			<path class="st32" d="M1023.8,192.1L1023.8,192.1c2.1-2.8,5.9-4.4,9.1-4.4c6.7,0,9.9,5.3,8.9,11.7c-1,6.5-5.9,11.3-12.4,11.3
				c-3.3,0-6.4-1.5-7.7-4.3h-0.1l-2.6,16.7h-2.1l5.5-35h2.1L1023.8,192.1z M1022.5,199.6c-0.8,5.2,2,9,7.3,9c5.1,0,9.2-4.3,9.9-9.3
				c0.8-5.1-1.7-9.7-7.1-9.7C1027.1,189.6,1023.3,194.3,1022.5,199.6z"/>
			<path class="st32" d="M1047.4,210.2h-2.1l6.1-39.4h2.1L1047.4,210.2z"/>
			<path class="st32" d="M1057.6,210.2h-2.1l3.4-22.1h2.1L1057.6,210.2z M1063.1,180.7c-0.2,1.1-1.2,2-2.2,2s-1.8-0.9-1.6-2
				c0.2-1.1,1.2-2,2.2-2C1062.5,178.8,1063.2,179.7,1063.1,180.7z"/>
			<path class="st32" d="M1084.8,210.2h-2.1l0.6-4h-0.1c-2,2.8-5.8,4.4-9,4.4c-6.6,0-9.9-5.2-8.9-11.7c1-6.5,5.9-11.4,12.4-11.4
				c3.3,0,6.3,1.5,7.7,4.3h0.1l0.6-3.8h2.1L1084.8,210.2z M1067.4,199c-0.8,5.1,1.8,9.7,7.1,9.7c5.6,0,9.3-4.6,10.1-9.9
				c0.8-5.1-2-9.1-7.3-9.1C1072.3,189.6,1068.2,194.2,1067.4,199z"/>
			<path class="st32" d="M1097.1,191.5L1097.1,191.5c1.7-2.4,4.3-3.9,7.2-3.9c5.6,0,6.6,3.5,5.7,9.2l-2.1,13.3h-2.1l2.1-13.3
				c0.6-4,0.7-7.2-4.1-7.2c-5.5,0-7.2,5.2-7.9,9.7l-1.7,10.9h-2.1l3.4-22.1h2.1L1097.1,191.5z"/>
			<path class="st32" d="M1134.6,193.2c-1.7-2.3-4-3.6-7.1-3.6c-5.1,0-9.7,4.4-10.5,9.5c-0.8,5,2.3,9.6,7.5,9.6c3.1,0,6.3-1.5,8.6-4
				l-0.5,2.9c-2.5,2-5.5,3.1-8.4,3.1c-6.5,0-10.4-5.1-9.4-11.6c1-6.4,6.6-11.5,13-11.5c2.8,0,5.3,0.9,7.2,2.7L1134.6,193.2z"/>
			<path class="st32" d="M1139.4,199.3c-1,5.6,2.2,9.3,7.3,9.3c3.4,0,6.5-2.1,8.5-5l1.6,1.1c-2.6,3.8-6.4,6-10.7,6
				c-6.5,0-9.7-5.3-8.8-11.6c1-6.2,6-11.5,12.4-11.5c6.6,0,9.7,5.4,8.6,11.7H1139.4z M1156.5,197.3c0.1-4.1-2.6-7.7-7.1-7.7
				c-4.4,0-8.7,3.5-9.7,7.7H1156.5z"/>
		</g>
	</g>
</g>
</svg>
